<svg xmlns="http://www.w3.org/2000/svg" width="16" height="16" viewBox="0 0 16 16" fill="none">
  <g clip-path="url(#clip0_2872_1119)">
    <path d="M4.68959 15.2835C5.01772 15.2835 5.2454 15.1094 5.65388 14.7478L7.96415 12.6919H12.2632C14.2588 12.6919 15.3302 11.587 15.3302 9.62503V4.49554C15.3302 2.53348 14.2588 1.42857 12.2632 1.42857H3.63825C1.64272 1.42857 0.571289 2.52679 0.571289 4.49554V9.62503C0.571289 11.5938 1.64272 12.6919 3.63825 12.6919H3.95968V14.433C3.95968 14.9487 4.22084 15.2835 4.68959 15.2835ZM4.96415 14.0581V12.1161C4.96415 11.7545 4.82352 11.6138 4.46191 11.6138H3.63825C2.28557 11.6138 1.64941 10.9241 1.64941 9.61829V4.49554C1.64941 3.18973 2.28557 2.5067 3.63825 2.5067H12.2632C13.6092 2.5067 14.2521 3.18973 14.2521 4.49554V9.61829C14.2521 10.9241 13.6092 11.6138 12.2632 11.6138H7.92397C7.54895 11.6138 7.36146 11.6674 7.107 11.9286L4.96415 14.0581Z" fill="#E2272A"/>
    <path d="M7.8238 8.4464C8.1586 8.4464 8.35951 8.23212 8.35951 7.97097C8.35951 7.94417 8.35951 7.91075 8.35951 7.89063C8.35951 7.5156 8.58048 7.27457 9.04922 6.96652C9.69882 6.53795 10.1608 6.14956 10.1608 5.34599C10.1608 4.23438 9.1698 3.6384 8.0314 3.6384C6.87962 3.6384 6.1229 4.18081 5.93541 4.79688C5.90192 4.90402 5.88184 5.01116 5.88184 5.125C5.88184 5.42634 6.11621 5.58705 6.34391 5.58705C6.57157 5.58705 6.7122 5.47991 6.83271 5.3192L6.95328 5.15848C7.18762 4.77009 7.54254 4.54241 7.98454 4.54241C8.6006 4.54241 8.99568 4.89063 8.99568 5.39956C8.99568 5.85491 8.71442 6.07589 8.12517 6.4844C7.64968 6.8192 7.28808 7.17412 7.28808 7.83035C7.28808 7.85715 7.28808 7.89063 7.28808 7.91743C7.28808 8.2656 7.47557 8.4464 7.8238 8.4464ZM7.80368 10.4419C8.19208 10.4419 8.52694 10.1406 8.52694 9.74555C8.52694 9.35715 8.19882 9.05583 7.80368 9.05583C7.41534 9.05583 7.08717 9.36383 7.08717 9.74555C7.08717 10.1339 7.42202 10.4419 7.80368 10.4419Z" fill="#E2272A"/>
  </g>
  <defs>
    <clipPath id="clip0_2872_1119">
      <rect width="14.7589" height="14.7121" fill="white" transform="translate(0.571289 0.571426)"/>
    </clipPath>
  </defs>
</svg>