<svg width="103" height="51" viewBox="0 0 103 51" fill="none" xmlns="http://www.w3.org/2000/svg">
<path d="M13.6454 30.9378C12.0281 32.6393 10.1357 33.694 7.98406 33.8348C4.07799 34.0904 2.44231 30.9395 3.37034 26.3244L5.09554 17.6345L9.23332 17.3638L7.23281 27.4346C6.83098 29.4223 7.5379 30.5728 8.9282 30.4819C11.5102 30.3129 14.2093 26.3465 15.5547 21.5045L16.4827 16.8894L20.5543 16.6229L17.4661 31.9178C21.0214 29.8567 23.1733 27.688 24.6328 25.0992L27.5901 26.6012C25.3983 30.7006 21.9483 33.3532 16.6625 35.8932L16.4583 36.8374C14.0207 48.865 2.41418 50.3226 1.93763 43.0401C1.61271 38.0748 7.96801 36.1297 11.0477 34.9308C11.7277 34.6536 12.3746 34.3786 12.9906 34.1388L13.6454 30.9378ZM12.2358 37.8451C11.6529 38.0827 11.037 38.3224 10.421 38.5622C9.6439 38.879 5.42075 40.3854 5.56805 42.6364C5.73268 45.1521 10.8214 43.1569 12.2358 37.8451ZM43.0089 23.8887L45.9692 25.3922C43.6822 29.6017 38.9652 32.2731 33.5309 32.6287C20.2433 33.4982 23.1383 16.204 33.2447 15.5426C41.2305 15.02 40.1923 24.073 29.5411 27.5986C30.3683 28.5428 31.8365 29.1123 34.2555 28.954C38.1986 28.696 41.393 26.6567 43.0089 23.8887ZM33.4501 19.1897C31.3626 19.3263 29.2986 21.8574 28.8604 24.3154C34.6855 22.3036 36.1341 19.0141 33.4501 19.1897ZM55.8351 19.6883L60.3085 19.3956L59.2637 24.7884C58.9125 26.5419 59.3312 27.3464 60.3585 27.2792C62.0484 27.1686 64.271 25.0265 66.0281 22.3824L68.9883 23.8858C66.4982 28.0421 63.08 30.7284 59.9984 30.93C57.8445 31.071 56.0564 30.1897 55.2902 28.1433C53.7239 30.1426 51.5796 31.4477 48.9619 31.619C45.6483 31.8358 42.863 29.9548 42.6331 26.4424C42.271 20.9087 48.4389 14.981 58.7937 13.538L59.6048 16.7794C51.8417 17.6535 46.868 22.5047 47.0783 25.7189C47.1802 27.2763 48.266 28.1038 50.0222 27.9888C52.8056 27.8067 54.7479 25.45 55.3616 22.1153L55.8351 19.6883ZM62.1541 41.3381L67.8208 13.513L71.6977 13.2593L70.9688 16.8677C72.8448 14.5153 75.2591 12.76 78.175 12.5692C81.4555 12.3545 83.5889 14.4445 83.8209 17.9901C84.0031 20.7735 82.9744 23.8691 81.169 26.2835C85.2713 25.9152 87.2734 23.4547 88.9023 20.8855L91.8625 22.389C90.3173 25.2189 85.778 30.6075 77.284 29.4661C76.4442 29.8539 75.5272 30.0803 74.5663 30.1431C69.5959 30.4684 70.6261 24.3444 74.4241 25.427C75.2367 25.64 75.9808 25.8243 76.6897 25.9776C78.6178 24.4204 79.8849 21.4091 79.6957 19.0254C79.5346 17.0726 78.4733 16.1104 76.9159 16.2123C72.6414 16.492 69.894 23.3274 69.2096 26.6002L69.1765 26.6023L66.2629 41.0692L62.1541 41.3381Z" fill="#E2272A"/>
<path d="M93.8858 28.6792C89.9426 28.9373 91.3036 23.2908 95.0479 23.0458C98.9249 22.7921 97.597 28.4364 93.8858 28.6792Z" fill="#FFDF00"/>
<path d="M89.9452 14.8294C87.6638 14.9787 87.8258 11.7335 90.137 11.5823C92.4184 11.433 92.2564 14.6782 89.9452 14.8294ZM90.1619 11.9625C88.4322 12.0757 88.2274 14.5525 89.9198 14.4417C91.6495 14.3285 91.8543 11.8518 90.1619 11.9625ZM89.6882 12.3904C90.6947 12.3245 91.1229 12.9179 90.2418 13.2975C90.3429 13.4706 90.4914 13.5657 90.7418 13.6167L90.6619 13.9963C90.2604 13.9253 90.0042 13.6725 89.8823 13.4109L89.7568 14.0106L89.3852 13.9376L89.6882 12.3904ZM89.9608 13.0089C90.366 12.9076 90.3711 12.7575 90.0168 12.7208L89.9608 13.0089Z" fill="#E2272A"/>
<path d="M22.3958 43.7737C22.3394 43.7774 22.2949 43.7649 22.2621 43.7361C22.229 43.7023 22.2108 43.6597 22.2075 43.6085L21.879 38.5895C21.8753 38.5332 21.8879 38.4886 21.9166 38.4559C21.945 38.418 21.9874 38.3972 22.0437 38.3935L23.7885 38.2793C24.3162 38.2448 24.7467 38.2964 25.0799 38.4341C25.4131 38.5718 25.6643 38.7921 25.8333 39.095C26.002 39.3927 26.1037 39.7668 26.1383 40.2174C26.1585 40.4476 26.1743 40.6499 26.1857 40.8241C26.1971 40.9983 26.2077 41.1983 26.2173 41.4241C26.2379 41.8962 26.1841 42.2934 26.056 42.6157C25.9326 42.9325 25.7171 43.1781 25.4095 43.3527C25.1067 43.5217 24.6965 43.6232 24.179 43.657L22.3958 43.7737ZM22.9295 43.0827L24.0978 43.0062C24.4513 42.9831 24.73 42.916 24.9337 42.8049C25.1374 42.6938 25.2783 42.5276 25.3565 42.3064C25.4397 42.0848 25.4724 41.797 25.4544 41.4432C25.4546 41.2888 25.451 41.1552 25.4436 41.0425C25.4359 40.9246 25.4283 40.8093 25.421 40.6966C25.4132 40.5788 25.3994 40.4459 25.3794 40.2979C25.3367 39.8016 25.1948 39.4429 24.9539 39.222C24.7127 38.9959 24.3257 38.9003 23.7928 38.9352L22.6629 39.0091L22.9295 43.0827ZM27.6958 43.4269C27.6394 43.4306 27.5948 43.4181 27.562 43.3893C27.5289 43.3554 27.5106 43.3128 27.5073 43.2615L27.1785 38.2374C27.1748 38.181 27.1873 38.1364 27.2161 38.1036C27.2445 38.0657 27.287 38.0449 27.3434 38.0412L30.5209 37.8333C30.5774 37.8296 30.6221 37.8447 30.6553 37.8786C30.688 37.9073 30.7063 37.9499 30.71 38.0064L30.7291 38.2987C30.7328 38.3551 30.7203 38.3997 30.6915 38.4325C30.6627 38.4653 30.6201 38.4836 30.5637 38.4873L27.9478 38.6584L28.0581 40.3434L30.5047 40.1833C30.5611 40.1796 30.6059 40.1947 30.639 40.2286C30.6718 40.2573 30.6901 40.2999 30.6938 40.3564L30.7124 40.641C30.7157 40.6923 30.7032 40.7369 30.6748 40.7748C30.646 40.8076 30.6034 40.8259 30.547 40.8296L28.1004 40.9897L28.2147 42.7362L30.8921 42.561C30.9485 42.5573 30.9931 42.5698 31.0259 42.5986C31.0587 42.6273 31.077 42.6699 31.0807 42.7263L31.1003 43.0264C31.1036 43.0777 31.0911 43.1223 31.0627 43.1602C31.0339 43.193 30.9913 43.2112 30.9349 43.2149L27.6958 43.4269ZM32.3617 43.1216C32.3053 43.1253 32.2607 43.1127 32.2279 43.084C32.1948 43.0501 32.1765 43.0075 32.1732 42.9562L31.8439 37.9244C31.8405 37.8731 31.8532 37.8311 31.882 37.7983C31.9104 37.7604 31.9528 37.7396 32.0093 37.7359L32.417 37.7092C32.4683 37.7058 32.5105 37.7211 32.5437 37.755C32.5816 37.7834 32.6022 37.8233 32.6056 37.8746L32.9026 42.4139L35.457 42.2468C35.5134 42.2431 35.5582 42.2582 35.5913 42.2921C35.6292 42.3205 35.65 42.3629 35.6537 42.4194L35.6738 42.7271C35.6772 42.7784 35.6621 42.8232 35.6286 42.8614C35.5998 42.8942 35.5572 42.9125 35.5008 42.9162L32.3617 43.1216ZM36.697 42.8379C36.6406 42.8416 36.596 42.829 36.5632 42.8003C36.53 42.7664 36.5118 42.7238 36.5085 42.6725L36.1792 37.6407C36.1758 37.5894 36.1885 37.5474 36.2173 37.5146C36.2457 37.4767 36.2881 37.4559 36.3446 37.4522L36.7523 37.4255C36.8088 37.4218 36.8535 37.4369 36.8867 37.4708C36.9194 37.4996 36.9375 37.5396 36.9409 37.5909L37.2701 42.6227C37.2735 42.6739 37.261 42.7186 37.2325 42.7565C37.2038 42.7893 37.1612 42.8075 37.1048 42.8112L36.697 42.8379ZM40.2241 42.6071C40.1472 42.6121 40.0845 42.5982 40.036 42.5653C39.9926 42.5321 39.956 42.4855 39.9264 42.4257L37.8869 37.5908C37.8746 37.5607 37.8677 37.5328 37.866 37.5072C37.8633 37.4661 37.8763 37.4292 37.9051 37.3964C37.9339 37.3636 37.9688 37.3459 38.0098 37.3432L38.4099 37.317C38.4714 37.313 38.5188 37.3279 38.5519 37.3618C38.5898 37.3903 38.6147 37.417 38.6267 37.4419L40.4124 41.7062L41.635 37.2451C41.6435 37.2188 41.6622 37.1892 41.691 37.1564C41.7194 37.1185 41.7644 37.0975 41.8259 37.0935L42.226 37.0673C42.2671 37.0646 42.304 37.0777 42.3368 37.1064C42.3747 37.1349 42.395 37.1696 42.3977 37.2106C42.3993 37.2363 42.3961 37.2648 42.3878 37.2963L40.9881 42.3562C40.9716 42.4191 40.9415 42.47 40.8977 42.5089C40.859 42.5475 40.8012 42.5693 40.7242 42.5743L40.2241 42.6071ZM43.8423 42.3703C43.7859 42.374 43.7413 42.3615 43.7085 42.3327C43.6754 42.2988 43.6572 42.2562 43.6538 42.2049L43.325 37.1808C43.3213 37.1244 43.3339 37.0798 43.3626 37.047C43.3911 37.0091 43.4335 36.9883 43.4899 36.9846L46.6675 36.7767C46.7239 36.773 46.7687 36.7881 46.8018 36.822C46.8346 36.8507 46.8528 36.8933 46.8565 36.9498L46.8756 37.2421C46.8793 37.2985 46.8668 37.3432 46.838 37.3759C46.8093 37.4087 46.7667 37.427 46.7103 37.4307L44.0944 37.6018L44.2046 39.2868L46.6513 39.1267C46.7077 39.123 46.7524 39.1381 46.7856 39.172C46.8184 39.2007 46.8366 39.2433 46.8403 39.2998L46.8589 39.5844C46.8623 39.6357 46.8497 39.6803 46.8213 39.7182C46.7926 39.751 46.75 39.7693 46.6935 39.773L44.2469 39.9331L44.3612 41.6796L47.0386 41.5044C47.0951 41.5007 47.1397 41.5132 47.1725 41.542C47.2053 41.5707 47.2235 41.6133 47.2272 41.6697L47.2468 41.9698C47.2502 42.0211 47.2376 42.0657 47.2092 42.1036C47.1805 42.1364 47.1379 42.1547 47.0814 42.1583L43.8423 42.3703ZM48.5082 42.065C48.4518 42.0687 48.4072 42.0561 48.3744 42.0274C48.3413 41.9935 48.323 41.9509 48.3197 41.8996L47.9909 36.8755C47.9872 36.8191 47.9998 36.7745 48.0285 36.7417C48.057 36.7038 48.0994 36.683 48.1558 36.6793L50.0331 36.5564C50.6127 36.5185 51.0807 36.6244 51.437 36.8741C51.7933 37.1238 51.9889 37.5154 52.0238 38.0488C52.0497 38.4438 51.9708 38.7734 51.7872 39.0379C51.6084 39.2968 51.3529 39.4861 51.0208 39.6057L52.3395 41.5747C52.3569 41.6045 52.3665 41.6322 52.3682 41.6579C52.3708 41.6989 52.3552 41.736 52.3213 41.7691C52.2926 41.8019 52.2577 41.8196 52.2167 41.8223L51.8473 41.8465C51.7602 41.8522 51.6945 41.8333 51.6505 41.7898C51.6064 41.7463 51.5675 41.7025 51.5337 41.6584L50.2902 39.7771L48.9438 39.8652L49.0737 41.8503C49.077 41.9016 49.0619 41.9463 49.0284 41.9846C48.9996 42.0174 48.957 42.0356 48.9006 42.0393L48.5082 42.065ZM48.901 39.2113L50.1705 39.1282C50.5552 39.103 50.8372 39.0047 51.0166 38.8333C51.1956 38.6568 51.2747 38.4095 51.2539 38.0915C51.2335 37.7786 51.123 37.5463 50.9224 37.3946C50.727 37.2425 50.4344 37.1792 50.0446 37.2047L48.7751 37.2878L48.901 39.2113ZM54.8007 41.6532C54.7494 41.6566 54.7048 41.644 54.6669 41.6156C54.6338 41.5817 54.6155 41.5391 54.6122 41.4878L54.4933 39.6721L52.4337 36.6543C52.4276 36.6393 52.4214 36.6242 52.4153 36.6092C52.4092 36.5941 52.4054 36.5763 52.4041 36.5558C52.4014 36.5148 52.4144 36.4779 52.4432 36.4451C52.472 36.4123 52.5069 36.3946 52.5479 36.3919L52.948 36.3657C52.9941 36.3627 53.036 36.3728 53.0736 36.3961C53.1108 36.4143 53.1385 36.4434 53.1566 36.4834L54.82 38.878L56.1572 36.2871C56.1801 36.2443 56.2063 36.2117 56.2358 36.1892C56.27 36.1612 56.3102 36.1457 56.3563 36.1427L56.7487 36.117C56.7949 36.114 56.8344 36.1268 56.8672 36.1556C56.8999 36.1844 56.9177 36.2193 56.9204 36.2603C56.9217 36.2808 56.9203 36.2989 56.9162 36.3147C56.9121 36.3304 56.9054 36.3463 56.8961 36.3623L55.255 39.6222L55.3739 41.438C55.3772 41.4893 55.3621 41.5341 55.3286 41.5723C55.2998 41.6051 55.2572 41.6233 55.2008 41.627L54.8007 41.6532Z" fill="#E2272A"/>
</svg>
